<svg width="1912" height="588" viewBox="0 0 1912 588" fill="none" xmlns="http://www.w3.org/2000/svg">
<path d="M61.4014 122.852C61.4014 109.982 71.8342 99.5496 84.7038 99.5496H392.296C405.166 99.5496 415.599 109.982 415.599 122.852V267.46C415.599 341.184 380.711 410.56 321.528 454.522L244.058 512.069C240.758 514.52 236.242 514.52 232.942 512.069L155.472 454.522C96.2892 410.56 61.4014 341.184 61.4014 267.46V122.852Z" stroke="#00B4B4" stroke-width="23.3025"/>
<path d="M12 54.9093C12 52.3354 14.0866 50.2488 16.6605 50.2488H50.4805C109.27 50.2488 167.529 39.1256 222.184 17.4661L233.512 12.9768C236.723 11.7042 240.292 11.6653 243.53 12.8677L265.703 21.101C317.619 40.3785 372.555 50.2488 427.934 50.2488H460.339C462.913 50.2488 465 52.3354 465 54.9093V293.276C465 367.4 429.735 437.103 370.016 481.013L244.022 573.656C240.737 576.071 236.263 576.071 232.978 573.656L106.983 481.013C47.2652 437.103 12 367.4 12 293.276V54.9093Z" stroke="#00B4B4" stroke-width="23.3025"/>
<path d="M238.034 425.37V425.37C287.898 425.37 319.653 372.081 295.923 328.225L238.034 221.24L180.144 328.225C156.414 372.081 188.17 425.37 238.034 425.37V425.37Z" fill="#00B4B4"/>
<path d="M196.318 351.734L238.543 403.814V403.814C214.633 405.288 194.734 385.684 195.85 361.755L196.318 351.734Z" fill="white"/>
<line x1="61.4014" y1="167.126" x2="415.599" y2="167.126" stroke="#00B4B4" stroke-width="23.3025"/>
<path d="M85.6362 134.969C85.6362 127.762 91.4786 121.92 98.6856 121.92V121.92C105.893 121.92 111.735 127.762 111.735 134.969V134.969C111.735 142.176 105.893 148.018 98.6856 148.018V148.018C91.4786 148.018 85.6362 142.176 85.6362 134.969V134.969Z" fill="#00B4B4"/>
<path d="M125.716 134.969C125.716 127.762 131.558 121.92 138.765 121.92V121.92C145.972 121.92 151.815 127.762 151.815 134.969V134.969C151.815 142.176 145.972 148.018 138.765 148.018V148.018C131.558 148.018 125.716 142.176 125.716 134.969V134.969Z" fill="#00B4B4"/>
<path d="M165.797 134.969C165.797 127.762 171.639 121.92 178.846 121.92V121.92C186.053 121.92 191.896 127.762 191.896 134.969V134.969C191.896 142.176 186.053 148.018 178.846 148.018V148.018C171.639 148.018 165.797 142.176 165.797 134.969V134.969Z" fill="#00B4B4"/>
<path d="M695.354 236.42C695.354 257.325 691.333 274.802 683.293 288.852C675.337 302.816 663.785 313.354 648.635 320.463C633.485 327.488 615.246 331 593.918 331H541.359V145.395H599.631C619.097 145.395 635.982 148.865 650.285 155.805C664.589 162.66 675.676 172.859 683.547 186.4C691.418 199.857 695.354 216.531 695.354 236.42ZM654.475 237.436C654.475 223.725 652.443 212.468 648.381 203.666C644.403 194.779 638.479 188.22 630.607 183.988C622.821 179.757 613.173 177.641 601.662 177.641H580.715V298.5H597.6C616.812 298.5 631.073 293.38 640.383 283.139C649.777 272.898 654.475 257.663 654.475 237.436ZM779.894 189.066V331H741.173V189.066H779.894ZM760.597 133.461C766.352 133.461 771.304 134.815 775.451 137.523C779.598 140.147 781.671 145.098 781.671 152.377C781.671 159.571 779.598 164.564 775.451 167.357C771.304 170.066 766.352 171.42 760.597 171.42C754.757 171.42 749.764 170.066 745.617 167.357C741.554 164.564 739.523 159.571 739.523 152.377C739.523 145.098 741.554 140.147 745.617 137.523C749.764 134.815 754.757 133.461 760.597 133.461ZM889.191 186.146C908.234 186.146 922.833 190.294 932.989 198.588C943.146 206.882 948.224 219.493 948.224 236.42V331H921.183L913.693 311.703H912.677C908.614 316.781 904.467 320.928 900.236 324.145C896.004 327.361 891.137 329.73 885.636 331.254C880.135 332.777 873.448 333.539 865.577 333.539C857.198 333.539 849.666 331.931 842.98 328.715C836.378 325.499 831.173 320.59 827.364 313.988C823.556 307.302 821.652 298.839 821.652 288.598C821.652 273.533 826.941 262.445 837.521 255.336C848.1 248.142 863.969 244.164 885.128 243.402L909.757 242.641V236.42C909.757 228.972 907.81 223.513 903.917 220.043C900.024 216.573 894.607 214.838 887.667 214.838C880.812 214.838 874.083 215.811 867.482 217.758C860.88 219.704 854.279 222.159 847.677 225.121L834.855 198.969C842.387 194.991 850.808 191.859 860.118 189.574C869.513 187.289 879.204 186.146 889.191 186.146ZM909.757 265.238L894.777 265.746C882.251 266.085 873.533 268.327 868.624 272.475C863.8 276.622 861.388 282.081 861.388 288.852C861.388 294.776 863.123 299.008 866.593 301.547C870.063 304.001 874.591 305.229 880.177 305.229C888.471 305.229 895.454 302.774 901.124 297.865C906.879 292.956 909.757 285.974 909.757 276.918V265.238ZM1155.66 236.42C1155.66 257.325 1151.63 274.802 1143.59 288.852C1135.64 302.816 1124.09 313.354 1108.94 320.463C1093.79 327.488 1075.55 331 1054.22 331H1001.66V145.395H1059.93C1079.4 145.395 1096.28 148.865 1110.59 155.805C1124.89 162.66 1135.98 172.859 1143.85 186.4C1151.72 199.857 1155.66 216.531 1155.66 236.42ZM1114.78 237.436C1114.78 223.725 1112.74 212.468 1108.68 203.666C1104.7 194.779 1098.78 188.22 1090.91 183.988C1083.12 179.757 1073.47 177.641 1061.96 177.641H1041.02V298.5H1057.9C1077.11 298.5 1091.37 293.38 1100.68 283.139C1110.08 272.898 1114.78 257.663 1114.78 237.436ZM1260 186.4C1273.12 186.4 1284.42 188.939 1293.9 194.018C1303.38 199.011 1310.7 206.29 1315.86 215.854C1321.02 225.417 1323.6 237.097 1323.6 250.893V269.682H1232.07C1232.49 280.6 1235.75 289.19 1241.85 295.453C1248.02 301.632 1256.57 304.721 1267.49 304.721C1276.55 304.721 1284.84 303.79 1292.37 301.928C1299.91 300.066 1307.65 297.273 1315.61 293.549V323.51C1308.58 326.98 1301.22 329.519 1293.52 331.127C1285.9 332.735 1276.63 333.539 1265.71 333.539C1251.49 333.539 1238.88 330.915 1227.88 325.668C1216.96 320.421 1208.37 312.423 1202.11 301.674C1195.93 290.925 1192.84 277.383 1192.84 261.049C1192.84 244.46 1195.64 230.665 1201.22 219.662C1206.89 208.575 1214.76 200.281 1224.83 194.779C1234.91 189.193 1246.63 186.4 1260 186.4ZM1260.25 213.949C1252.72 213.949 1246.46 216.361 1241.47 221.186C1236.56 226.01 1233.72 233.585 1232.96 243.91H1287.3C1287.21 238.155 1286.15 233.035 1284.12 228.549C1282.17 224.063 1279.21 220.508 1275.23 217.885C1271.34 215.261 1266.35 213.949 1260.25 213.949ZM1425.28 302.689C1429.51 302.689 1433.62 302.266 1437.6 301.42C1441.66 300.574 1445.68 299.516 1449.66 298.246V327.064C1445.51 328.926 1440.35 330.45 1434.17 331.635C1428.08 332.904 1421.39 333.539 1414.11 333.539C1405.65 333.539 1398.03 332.185 1391.26 329.477C1384.57 326.684 1379.28 321.902 1375.39 315.131C1371.58 308.275 1369.68 298.754 1369.68 286.566V218.139H1351.14V201.762L1372.47 188.812L1383.64 158.852H1408.4V189.066H1448.13V218.139H1408.4V286.566C1408.4 291.983 1409.92 296.046 1412.97 298.754C1416.1 301.378 1420.21 302.689 1425.28 302.689ZM1547.4 186.4C1560.52 186.4 1571.82 188.939 1581.3 194.018C1590.78 199.011 1598.1 206.29 1603.26 215.854C1608.42 225.417 1611.01 237.097 1611.01 250.893V269.682H1519.47C1519.9 280.6 1523.15 289.19 1529.25 295.453C1535.43 301.632 1543.97 304.721 1554.89 304.721C1563.95 304.721 1572.24 303.79 1579.78 301.928C1587.31 300.066 1595.05 297.273 1603.01 293.549V323.51C1595.98 326.98 1588.62 329.519 1580.92 331.127C1573.3 332.735 1564.03 333.539 1553.11 333.539C1538.9 333.539 1526.29 330.915 1515.28 325.668C1504.36 320.421 1495.77 312.423 1489.51 301.674C1483.33 290.925 1480.24 277.383 1480.24 261.049C1480.24 244.46 1483.04 230.665 1488.62 219.662C1494.29 208.575 1502.16 200.281 1512.24 194.779C1522.31 189.193 1534.03 186.4 1547.4 186.4ZM1547.66 213.949C1540.12 213.949 1533.86 216.361 1528.87 221.186C1523.96 226.01 1521.12 233.585 1520.36 243.91H1574.7C1574.61 238.155 1573.55 233.035 1571.52 228.549C1569.58 224.063 1566.61 220.508 1562.64 217.885C1558.74 215.261 1553.75 213.949 1547.66 213.949ZM1710.53 333.539C1696.48 333.539 1684.5 331 1674.6 325.922C1664.7 320.759 1657.16 312.803 1652 302.055C1646.84 291.306 1644.26 277.553 1644.26 260.795C1644.26 243.445 1647.18 229.311 1653.02 218.393C1658.94 207.39 1667.11 199.307 1677.52 194.145C1688.01 188.982 1700.16 186.4 1713.95 186.4C1723.77 186.4 1732.24 187.374 1739.34 189.32C1746.54 191.182 1752.8 193.425 1758.13 196.049L1746.71 226.01C1740.61 223.555 1734.94 221.566 1729.7 220.043C1724.45 218.435 1719.2 217.631 1713.95 217.631C1707.18 217.631 1701.56 219.239 1697.07 222.455C1692.58 225.587 1689.24 230.326 1687.04 236.674C1684.84 243.021 1683.74 250.977 1683.74 260.541C1683.74 269.936 1684.92 277.722 1687.29 283.9C1689.66 290.079 1693.09 294.691 1697.58 297.738C1702.06 300.701 1707.52 302.182 1713.95 302.182C1721.99 302.182 1729.15 301.124 1735.41 299.008C1741.67 296.807 1747.77 293.76 1753.69 289.867V323.002C1747.77 326.726 1741.55 329.392 1735.03 331C1728.6 332.693 1720.43 333.539 1710.53 333.539ZM1856.89 302.689C1861.13 302.689 1865.23 302.266 1869.21 301.42C1873.27 300.574 1877.29 299.516 1881.27 298.246V327.064C1877.12 328.926 1871.96 330.45 1865.78 331.635C1859.69 332.904 1853 333.539 1845.72 333.539C1837.26 333.539 1829.64 332.185 1822.87 329.477C1816.18 326.684 1810.89 321.902 1807 315.131C1803.19 308.275 1801.29 298.754 1801.29 286.566V218.139H1782.75V201.762L1804.08 188.812L1815.25 158.852H1840.01V189.066H1879.74V218.139H1840.01V286.566C1840.01 291.983 1841.53 296.046 1844.58 298.754C1847.71 301.378 1851.82 302.689 1856.89 302.689ZM544.343 399L541.755 390.504H528.742L526.154 399H518L530.598 363.16H539.851L552.497 399H544.343ZM539.948 384.156L537.36 375.855C537.198 375.302 536.978 374.594 536.701 373.731C536.441 372.853 536.172 371.965 535.896 371.07C535.635 370.159 535.424 369.369 535.261 368.702C535.098 369.369 534.87 370.2 534.577 371.192C534.3 372.169 534.032 373.097 533.771 373.976C533.511 374.854 533.324 375.481 533.21 375.855L530.646 384.156H539.948ZM573.113 371.192C576.189 371.192 578.672 372.389 580.56 374.781C582.464 377.174 583.416 380.681 583.416 385.304C583.416 388.396 582.968 391 582.073 393.116C581.178 395.216 579.941 396.803 578.362 397.877C576.784 398.951 574.969 399.488 572.918 399.488C571.6 399.488 570.468 399.326 569.524 399C568.58 398.658 567.775 398.227 567.107 397.706C566.44 397.169 565.862 396.599 565.374 395.997H564.983C565.114 396.648 565.211 397.315 565.276 397.999C565.341 398.683 565.374 399.35 565.374 400.001V411.012H557.928V371.705H563.982L565.032 375.245H565.374C565.862 374.513 566.456 373.837 567.156 373.219C567.856 372.6 568.694 372.112 569.671 371.754C570.664 371.38 571.811 371.192 573.113 371.192ZM570.721 377.149C569.419 377.149 568.385 377.418 567.62 377.955C566.855 378.492 566.294 379.298 565.936 380.372C565.594 381.446 565.407 382.805 565.374 384.449V385.255C565.374 387.013 565.537 388.502 565.862 389.723C566.204 390.943 566.766 391.871 567.547 392.506C568.344 393.141 569.435 393.458 570.818 393.458C571.958 393.458 572.894 393.141 573.626 392.506C574.358 391.871 574.904 390.943 575.262 389.723C575.636 388.486 575.823 386.98 575.823 385.206C575.823 382.537 575.408 380.527 574.578 379.176C573.748 377.825 572.462 377.149 570.721 377.149ZM598.515 399H591.068V361.012H598.515V399ZM615.298 371.705V399H607.852V371.705H615.298ZM611.587 361.012C612.694 361.012 613.646 361.272 614.443 361.793C615.241 362.298 615.64 363.25 615.64 364.649C615.64 366.033 615.241 366.993 614.443 367.53C613.646 368.051 612.694 368.312 611.587 368.312C610.464 368.312 609.504 368.051 608.706 367.53C607.925 366.993 607.534 366.033 607.534 364.649C607.534 363.25 607.925 362.298 608.706 361.793C609.504 361.272 610.464 361.012 611.587 361.012ZM632.081 361.012V378.004C632.081 379.029 632.04 380.055 631.959 381.08C631.878 382.105 631.788 383.131 631.69 384.156H631.788C632.293 383.44 632.805 382.732 633.326 382.032C633.863 381.332 634.433 380.657 635.035 380.006L642.677 371.705H651.075L640.235 383.546L651.734 399H643.141L635.279 387.94L632.081 390.504V399H624.635V361.012H632.081ZM668.322 371.144C671.984 371.144 674.792 371.941 676.745 373.536C678.698 375.131 679.675 377.556 679.675 380.812V399H674.475L673.034 395.289H672.839C672.058 396.266 671.26 397.063 670.446 397.682C669.632 398.3 668.697 398.756 667.639 399.049C666.581 399.342 665.295 399.488 663.781 399.488C662.17 399.488 660.721 399.179 659.436 398.561C658.166 397.942 657.165 396.998 656.433 395.729C655.7 394.443 655.334 392.815 655.334 390.846C655.334 387.949 656.351 385.816 658.386 384.449C660.42 383.066 663.472 382.301 667.541 382.154L672.277 382.008V380.812C672.277 379.379 671.903 378.329 671.154 377.662C670.406 376.995 669.364 376.661 668.029 376.661C666.711 376.661 665.417 376.848 664.147 377.223C662.878 377.597 661.608 378.069 660.339 378.639L657.873 373.609C659.322 372.844 660.941 372.242 662.731 371.803C664.538 371.363 666.402 371.144 668.322 371.144ZM672.277 386.354L669.396 386.451C666.988 386.516 665.311 386.948 664.367 387.745C663.439 388.543 662.976 389.592 662.976 390.895C662.976 392.034 663.309 392.848 663.977 393.336C664.644 393.808 665.515 394.044 666.589 394.044C668.184 394.044 669.527 393.572 670.617 392.628C671.724 391.684 672.277 390.341 672.277 388.6V386.354ZM707.908 390.895C707.908 392.75 707.469 394.321 706.59 395.606C705.727 396.876 704.433 397.844 702.708 398.512C700.983 399.163 698.834 399.488 696.263 399.488C694.358 399.488 692.723 399.366 691.355 399.122C690.005 398.878 688.637 398.471 687.254 397.901V391.749C688.735 392.416 690.322 392.97 692.015 393.409C693.724 393.832 695.221 394.044 696.507 394.044C697.955 394.044 698.989 393.832 699.607 393.409C700.242 392.97 700.56 392.4 700.56 391.7C700.56 391.244 700.429 390.838 700.169 390.479C699.925 390.105 699.388 389.69 698.558 389.234C697.728 388.762 696.425 388.152 694.651 387.403C692.942 386.687 691.535 385.963 690.428 385.23C689.337 384.498 688.523 383.635 687.986 382.643C687.465 381.633 687.205 380.356 687.205 378.81C687.205 376.287 688.182 374.391 690.135 373.121C692.104 371.835 694.733 371.192 698.021 371.192C699.713 371.192 701.325 371.363 702.854 371.705C704.401 372.047 705.988 372.592 707.615 373.341L705.369 378.712C704.018 378.126 702.741 377.646 701.536 377.271C700.348 376.897 699.135 376.71 697.898 376.71C696.808 376.71 695.986 376.856 695.433 377.149C694.879 377.442 694.603 377.89 694.603 378.492C694.603 378.932 694.741 379.322 695.018 379.664C695.311 380.006 695.864 380.388 696.678 380.812C697.508 381.218 698.72 381.747 700.315 382.398C701.862 383.033 703.204 383.701 704.344 384.4C705.483 385.084 706.362 385.938 706.98 386.964C707.599 387.973 707.908 389.283 707.908 390.895ZM722.665 371.705V399H715.219V371.705H722.665ZM718.954 361.012C720.061 361.012 721.013 361.272 721.811 361.793C722.608 362.298 723.007 363.25 723.007 364.649C723.007 366.033 722.608 366.993 721.811 367.53C721.013 368.051 720.061 368.312 718.954 368.312C717.831 368.312 716.871 368.051 716.073 367.53C715.292 366.993 714.901 366.033 714.901 364.649C714.901 363.25 715.292 362.298 716.073 361.793C716.871 361.272 717.831 361.012 718.954 361.012ZM776.69 380.812C776.69 384.832 775.917 388.193 774.371 390.895C772.841 393.58 770.619 395.606 767.706 396.974C764.793 398.325 761.285 399 757.184 399H747.076V363.307H758.282C762.026 363.307 765.273 363.974 768.023 365.309C770.774 366.627 772.906 368.588 774.42 371.192C775.934 373.78 776.69 376.987 776.69 380.812ZM768.829 381.007C768.829 378.37 768.438 376.205 767.657 374.513C766.892 372.804 765.753 371.542 764.239 370.729C762.742 369.915 760.886 369.508 758.673 369.508H754.645V392.75H757.892C761.586 392.75 764.329 391.765 766.119 389.796C767.926 387.826 768.829 384.897 768.829 381.007ZM796.257 371.192C798.78 371.192 800.952 371.681 802.775 372.657C804.598 373.618 806.006 375.017 806.999 376.856C807.992 378.696 808.488 380.942 808.488 383.595V387.208H790.886C790.967 389.308 791.594 390.96 792.766 392.164C793.954 393.352 795.598 393.946 797.697 393.946C799.439 393.946 801.034 393.767 802.482 393.409C803.931 393.051 805.42 392.514 806.95 391.798V397.56C805.599 398.227 804.183 398.715 802.702 399.024C801.237 399.334 799.455 399.488 797.355 399.488C794.621 399.488 792.196 398.984 790.08 397.975C787.98 396.965 786.328 395.427 785.124 393.36C783.936 391.293 783.342 388.689 783.342 385.548C783.342 382.358 783.879 379.705 784.953 377.589C786.044 375.457 787.557 373.862 789.494 372.804C791.431 371.729 793.685 371.192 796.257 371.192ZM796.306 376.49C794.857 376.49 793.653 376.954 792.692 377.882C791.748 378.81 791.203 380.266 791.057 382.252H801.506C801.49 381.145 801.286 380.16 800.896 379.298C800.521 378.435 799.951 377.752 799.187 377.247C798.438 376.743 797.478 376.49 796.306 376.49ZM827.542 393.556C828.356 393.556 829.145 393.474 829.91 393.312C830.691 393.149 831.465 392.945 832.229 392.701V398.243C831.432 398.601 830.439 398.894 829.251 399.122C828.079 399.366 826.793 399.488 825.394 399.488C823.766 399.488 822.301 399.228 820.999 398.707C819.713 398.17 818.696 397.25 817.947 395.948C817.215 394.63 816.849 392.799 816.849 390.455V377.296H813.284V374.146L817.386 371.656L819.534 365.895H824.295V371.705H831.937V377.296H824.295V390.455C824.295 391.497 824.588 392.278 825.174 392.799C825.776 393.303 826.565 393.556 827.542 393.556ZM850.526 371.192C853.049 371.192 855.222 371.681 857.045 372.657C858.868 373.618 860.276 375.017 861.269 376.856C862.261 378.696 862.758 380.942 862.758 383.595V387.208H845.155C845.237 389.308 845.863 390.96 847.035 392.164C848.223 393.352 849.867 393.946 851.967 393.946C853.708 393.946 855.303 393.767 856.752 393.409C858.201 393.051 859.69 392.514 861.22 391.798V397.56C859.869 398.227 858.453 398.715 856.972 399.024C855.507 399.334 853.725 399.488 851.625 399.488C848.891 399.488 846.465 398.984 844.35 397.975C842.25 396.965 840.598 395.427 839.394 393.36C838.205 391.293 837.611 388.689 837.611 385.548C837.611 382.358 838.148 379.705 839.223 377.589C840.313 375.457 841.827 373.862 843.764 372.804C845.701 371.729 847.955 371.192 850.526 371.192ZM850.575 376.49C849.127 376.49 847.922 376.954 846.962 377.882C846.018 378.81 845.473 380.266 845.326 382.252H855.775C855.759 381.145 855.556 380.16 855.165 379.298C854.791 378.435 854.221 377.752 853.456 377.247C852.707 376.743 851.747 376.49 850.575 376.49ZM877.759 361.012V378.004C877.759 379.029 877.718 380.055 877.637 381.08C877.555 382.105 877.466 383.131 877.368 384.156H877.466C877.97 383.44 878.483 382.732 879.004 382.032C879.541 381.332 880.111 380.657 880.713 380.006L888.354 371.705H896.753L885.913 383.546L897.412 399H888.818L880.957 387.94L877.759 390.504V399H870.312V361.012H877.759ZM921.861 390.895C921.861 392.75 921.422 394.321 920.543 395.606C919.68 396.876 918.386 397.844 916.661 398.512C914.936 399.163 912.787 399.488 910.216 399.488C908.312 399.488 906.676 399.366 905.309 399.122C903.958 398.878 902.59 398.471 901.207 397.901V391.749C902.688 392.416 904.275 392.97 905.968 393.409C907.677 393.832 909.174 394.044 910.46 394.044C911.909 394.044 912.942 393.832 913.561 393.409C914.195 392.97 914.513 392.4 914.513 391.7C914.513 391.244 914.382 390.838 914.122 390.479C913.878 390.105 913.341 389.69 912.511 389.234C911.681 388.762 910.379 388.152 908.604 387.403C906.896 386.687 905.488 385.963 904.381 385.23C903.29 384.498 902.477 383.635 901.939 382.643C901.419 381.633 901.158 380.356 901.158 378.81C901.158 376.287 902.135 374.391 904.088 373.121C906.057 371.835 908.686 371.192 911.974 371.192C913.666 371.192 915.278 371.363 916.808 371.705C918.354 372.047 919.941 372.592 921.568 373.341L919.322 378.712C917.971 378.126 916.694 377.646 915.489 377.271C914.301 376.897 913.089 376.71 911.852 376.71C910.761 376.71 909.939 376.856 909.386 377.149C908.832 377.442 908.556 377.89 908.556 378.492C908.556 378.932 908.694 379.322 908.971 379.664C909.264 380.006 909.817 380.388 910.631 380.812C911.461 381.218 912.674 381.747 914.269 382.398C915.815 383.033 917.158 383.701 918.297 384.4C919.436 385.084 920.315 385.938 920.934 386.964C921.552 387.973 921.861 389.283 921.861 390.895ZM936.618 371.705V399H929.172V371.705H936.618ZM932.907 361.012C934.014 361.012 934.966 361.272 935.764 361.793C936.561 362.298 936.96 363.25 936.96 364.649C936.96 366.033 936.561 366.993 935.764 367.53C934.966 368.051 934.014 368.312 932.907 368.312C931.784 368.312 930.824 368.051 930.026 367.53C929.245 366.993 928.854 366.033 928.854 364.649C928.854 363.25 929.245 362.298 930.026 361.793C930.824 361.272 931.784 361.012 932.907 361.012ZM990.644 380.812C990.644 384.832 989.87 388.193 988.324 390.895C986.794 393.58 984.573 395.606 981.659 396.974C978.746 398.325 975.238 399 971.137 399H961.029V363.307H972.235C975.979 363.307 979.226 363.974 981.977 365.309C984.727 366.627 986.859 368.588 988.373 371.192C989.887 373.78 990.644 376.987 990.644 380.812ZM982.782 381.007C982.782 378.37 982.392 376.205 981.61 374.513C980.845 372.804 979.706 371.542 978.192 370.729C976.695 369.915 974.84 369.508 972.626 369.508H968.598V392.75H971.845C975.539 392.75 978.282 391.765 980.072 389.796C981.879 387.826 982.782 384.897 982.782 381.007ZM1006.4 371.705V399H998.955V371.705H1006.4ZM1002.69 361.012C1003.8 361.012 1004.75 361.272 1005.55 361.793C1006.34 362.298 1006.74 363.25 1006.74 364.649C1006.74 366.033 1006.34 366.993 1005.55 367.53C1004.75 368.051 1003.8 368.312 1002.69 368.312C1001.57 368.312 1000.61 368.051 999.81 367.53C999.028 366.993 998.638 366.033 998.638 364.649C998.638 363.25 999.028 362.298 999.81 361.793C1000.61 361.272 1001.57 361.012 1002.69 361.012ZM1026.92 371.144C1030.58 371.144 1033.39 371.941 1035.34 373.536C1037.3 375.131 1038.27 377.556 1038.27 380.812V399H1033.07L1031.63 395.289H1031.44C1030.66 396.266 1029.86 397.063 1029.04 397.682C1028.23 398.3 1027.29 398.756 1026.24 399.049C1025.18 399.342 1023.89 399.488 1022.38 399.488C1020.77 399.488 1019.32 399.179 1018.03 398.561C1016.76 397.942 1015.76 396.998 1015.03 395.729C1014.3 394.443 1013.93 392.815 1013.93 390.846C1013.93 387.949 1014.95 385.816 1016.98 384.449C1019.02 383.066 1022.07 382.301 1026.14 382.154L1030.88 382.008V380.812C1030.88 379.379 1030.5 378.329 1029.75 377.662C1029 376.995 1027.96 376.661 1026.63 376.661C1025.31 376.661 1024.01 376.848 1022.75 377.223C1021.48 377.597 1020.21 378.069 1018.94 378.639L1016.47 373.609C1017.92 372.844 1019.54 372.242 1021.33 371.803C1023.14 371.363 1025 371.144 1026.92 371.144ZM1030.88 386.354L1027.99 386.451C1025.59 386.516 1023.91 386.948 1022.96 387.745C1022.04 388.543 1021.57 389.592 1021.57 390.895C1021.57 392.034 1021.91 392.848 1022.57 393.336C1023.24 393.808 1024.11 394.044 1025.19 394.044C1026.78 394.044 1028.12 393.572 1029.21 392.628C1030.32 391.684 1030.88 390.341 1030.88 388.6V386.354ZM1054.91 361.012V369.85C1054.91 370.875 1054.88 371.892 1054.81 372.901C1054.76 373.91 1054.7 374.692 1054.62 375.245H1054.91C1055.63 374.122 1056.6 373.17 1057.84 372.389C1059.08 371.591 1060.68 371.192 1062.65 371.192C1065.71 371.192 1068.19 372.389 1070.09 374.781C1072 377.174 1072.95 380.681 1072.95 385.304C1072.95 388.412 1072.51 391.025 1071.63 393.141C1070.75 395.24 1069.53 396.827 1067.95 397.901C1066.37 398.959 1064.54 399.488 1062.45 399.488C1060.45 399.488 1058.87 399.13 1057.72 398.414C1056.56 397.698 1055.63 396.892 1054.91 395.997H1054.4L1053.15 399H1047.46V361.012H1054.91ZM1060.26 377.149C1058.95 377.149 1057.92 377.418 1057.16 377.955C1056.39 378.492 1055.83 379.298 1055.47 380.372C1055.13 381.446 1054.94 382.805 1054.91 384.449V385.255C1054.91 387.908 1055.3 389.942 1056.08 391.358C1056.86 392.758 1058.29 393.458 1060.35 393.458C1061.88 393.458 1063.1 392.75 1063.99 391.334C1064.9 389.918 1065.36 387.875 1065.36 385.206C1065.36 382.537 1064.9 380.527 1063.99 379.176C1063.08 377.825 1061.83 377.149 1060.26 377.149ZM1091.86 371.192C1094.38 371.192 1096.55 371.681 1098.38 372.657C1100.2 373.618 1101.61 375.017 1102.6 376.856C1103.59 378.696 1104.09 380.942 1104.09 383.595V387.208H1086.49C1086.57 389.308 1087.2 390.96 1088.37 392.164C1089.56 393.352 1091.2 393.946 1093.3 393.946C1095.04 393.946 1096.64 393.767 1098.08 393.409C1099.53 393.051 1101.02 392.514 1102.55 391.798V397.56C1101.2 398.227 1099.78 398.715 1098.3 399.024C1096.84 399.334 1095.06 399.488 1092.96 399.488C1090.22 399.488 1087.8 398.984 1085.68 397.975C1083.58 396.965 1081.93 395.427 1080.73 393.36C1079.54 391.293 1078.94 388.689 1078.94 385.548C1078.94 382.358 1079.48 379.705 1080.55 377.589C1081.65 375.457 1083.16 373.862 1085.1 372.804C1087.03 371.729 1089.29 371.192 1091.86 371.192ZM1091.91 376.49C1090.46 376.49 1089.25 376.954 1088.29 377.882C1087.35 378.81 1086.8 380.266 1086.66 382.252H1097.11C1097.09 381.145 1096.89 380.16 1096.5 379.298C1096.12 378.435 1095.55 377.752 1094.79 377.247C1094.04 376.743 1093.08 376.49 1091.91 376.49ZM1123.14 393.556C1123.96 393.556 1124.75 393.474 1125.51 393.312C1126.29 393.149 1127.07 392.945 1127.83 392.701V398.243C1127.03 398.601 1126.04 398.894 1124.85 399.122C1123.68 399.366 1122.39 399.488 1121 399.488C1119.37 399.488 1117.9 399.228 1116.6 398.707C1115.31 398.17 1114.3 397.25 1113.55 395.948C1112.82 394.63 1112.45 392.799 1112.45 390.455V377.296H1108.89V374.146L1112.99 371.656L1115.14 365.895H1119.9V371.705H1127.54V377.296H1119.9V390.455C1119.9 391.497 1120.19 392.278 1120.78 392.799C1121.38 393.303 1122.17 393.556 1123.14 393.556ZM1146.13 371.192C1148.65 371.192 1150.82 371.681 1152.65 372.657C1154.47 373.618 1155.88 375.017 1156.87 376.856C1157.86 378.696 1158.36 380.942 1158.36 383.595V387.208H1140.76C1140.84 389.308 1141.46 390.96 1142.64 392.164C1143.82 393.352 1145.47 393.946 1147.57 393.946C1149.31 393.946 1150.9 393.767 1152.35 393.409C1153.8 393.051 1155.29 392.514 1156.82 391.798V397.56C1155.47 398.227 1154.05 398.715 1152.57 399.024C1151.11 399.334 1149.33 399.488 1147.23 399.488C1144.49 399.488 1142.07 398.984 1139.95 397.975C1137.85 396.965 1136.2 395.427 1135 393.36C1133.81 391.293 1133.21 388.689 1133.21 385.548C1133.21 382.358 1133.75 379.705 1134.82 377.589C1135.91 375.457 1137.43 373.862 1139.37 372.804C1141.3 371.729 1143.56 371.192 1146.13 371.192ZM1146.18 376.49C1144.73 376.49 1143.52 376.954 1142.56 377.882C1141.62 378.81 1141.07 380.266 1140.93 382.252H1151.38C1151.36 381.145 1151.16 380.16 1150.77 379.298C1150.39 378.435 1149.82 377.752 1149.06 377.247C1148.31 376.743 1147.35 376.49 1146.18 376.49ZM1184.96 390.895C1184.96 392.75 1184.52 394.321 1183.64 395.606C1182.78 396.876 1181.48 397.844 1179.76 398.512C1178.03 399.163 1175.88 399.488 1173.31 399.488C1171.41 399.488 1169.77 399.366 1168.4 399.122C1167.05 398.878 1165.69 398.471 1164.3 397.901V391.749C1165.78 392.416 1167.37 392.97 1169.06 393.409C1170.77 393.832 1172.27 394.044 1173.56 394.044C1175 394.044 1176.04 393.832 1176.66 393.409C1177.29 392.97 1177.61 392.4 1177.61 391.7C1177.61 391.244 1177.48 390.838 1177.22 390.479C1176.97 390.105 1176.44 389.69 1175.61 389.234C1174.78 388.762 1173.47 388.152 1171.7 387.403C1169.99 386.687 1168.58 385.963 1167.48 385.23C1166.39 384.498 1165.57 383.635 1165.04 382.643C1164.51 381.633 1164.25 380.356 1164.25 378.81C1164.25 376.287 1165.23 374.391 1167.18 373.121C1169.15 371.835 1171.78 371.192 1175.07 371.192C1176.76 371.192 1178.37 371.363 1179.9 371.705C1181.45 372.047 1183.04 372.592 1184.66 373.341L1182.42 378.712C1181.07 378.126 1179.79 377.646 1178.58 377.271C1177.4 376.897 1176.18 376.71 1174.95 376.71C1173.86 376.71 1173.03 376.856 1172.48 377.149C1171.93 377.442 1171.65 377.89 1171.65 378.492C1171.65 378.932 1171.79 379.322 1172.07 379.664C1172.36 380.006 1172.91 380.388 1173.73 380.812C1174.56 381.218 1175.77 381.747 1177.36 382.398C1178.91 383.033 1180.25 383.701 1181.39 384.4C1182.53 385.084 1183.41 385.938 1184.03 386.964C1184.65 387.973 1184.96 389.283 1184.96 390.895ZM1207.34 363.307H1218.45C1223.2 363.307 1226.8 363.974 1229.24 365.309C1231.68 366.643 1232.9 368.987 1232.9 372.34C1232.9 373.691 1232.68 374.911 1232.24 376.002C1231.82 377.092 1231.2 377.988 1230.39 378.688C1229.57 379.387 1228.58 379.843 1227.41 380.055V380.299C1228.6 380.543 1229.67 380.966 1230.63 381.568C1231.59 382.154 1232.36 383.017 1232.93 384.156C1233.51 385.279 1233.81 386.777 1233.81 388.648C1233.81 390.813 1233.28 392.669 1232.22 394.215C1231.16 395.761 1229.65 396.949 1227.68 397.779C1225.73 398.593 1223.4 399 1220.7 399H1207.34V363.307ZM1214.91 377.442H1219.3C1221.5 377.442 1223.02 377.101 1223.87 376.417C1224.72 375.717 1225.14 374.692 1225.14 373.341C1225.14 371.974 1224.64 370.997 1223.63 370.411C1222.63 369.809 1221.05 369.508 1218.89 369.508H1214.91V377.442ZM1214.91 383.448V392.75H1219.84C1222.12 392.75 1223.71 392.311 1224.6 391.432C1225.5 390.553 1225.95 389.373 1225.95 387.892C1225.95 387.013 1225.75 386.24 1225.36 385.572C1224.97 384.905 1224.31 384.384 1223.38 384.01C1222.47 383.635 1221.21 383.448 1219.6 383.448H1214.91ZM1253.1 371.192C1255.63 371.192 1257.8 371.681 1259.62 372.657C1261.45 373.618 1262.85 375.017 1263.85 376.856C1264.84 378.696 1265.34 380.942 1265.34 383.595V387.208H1247.73C1247.81 389.308 1248.44 390.96 1249.61 392.164C1250.8 393.352 1252.45 393.946 1254.54 393.946C1256.29 393.946 1257.88 393.767 1259.33 393.409C1260.78 393.051 1262.27 392.514 1263.8 391.798V397.56C1262.45 398.227 1261.03 398.715 1259.55 399.024C1258.08 399.334 1256.3 399.488 1254.2 399.488C1251.47 399.488 1249.04 398.984 1246.93 397.975C1244.83 396.965 1243.18 395.427 1241.97 393.36C1240.78 391.293 1240.19 388.689 1240.19 385.548C1240.19 382.358 1240.73 379.705 1241.8 377.589C1242.89 375.457 1244.4 373.862 1246.34 372.804C1248.28 371.729 1250.53 371.192 1253.1 371.192ZM1253.15 376.49C1251.7 376.49 1250.5 376.954 1249.54 377.882C1248.6 378.81 1248.05 380.266 1247.9 382.252H1258.35C1258.34 381.145 1258.13 380.16 1257.74 379.298C1257.37 378.435 1256.8 377.752 1256.03 377.247C1255.29 376.743 1254.33 376.49 1253.15 376.49ZM1288.12 371.192C1288.5 371.192 1288.93 371.217 1289.42 371.266C1289.92 371.298 1290.33 371.347 1290.64 371.412L1290.08 378.395C1289.83 378.313 1289.48 378.256 1289.03 378.224C1288.59 378.175 1288.21 378.15 1287.88 378.15C1286.92 378.15 1285.98 378.272 1285.07 378.517C1284.18 378.761 1283.37 379.16 1282.66 379.713C1281.94 380.25 1281.37 380.966 1280.95 381.861C1280.54 382.74 1280.34 383.823 1280.34 385.108V399H1272.89V371.705H1278.53L1279.63 376.295H1280C1280.53 375.367 1281.2 374.521 1282 373.756C1282.81 372.975 1283.73 372.356 1284.76 371.9C1285.8 371.428 1286.92 371.192 1288.12 371.192ZM1304.54 361.012V369.85C1304.54 370.875 1304.51 371.892 1304.44 372.901C1304.4 373.91 1304.33 374.692 1304.25 375.245H1304.54C1305.26 374.122 1306.23 373.17 1307.47 372.389C1308.71 371.591 1310.31 371.192 1312.28 371.192C1315.34 371.192 1317.82 372.389 1319.73 374.781C1321.63 377.174 1322.58 380.681 1322.58 385.304C1322.58 388.412 1322.14 391.025 1321.27 393.141C1320.39 395.24 1319.16 396.827 1317.58 397.901C1316 398.959 1314.17 399.488 1312.09 399.488C1310.08 399.488 1308.51 399.13 1307.35 398.414C1306.19 397.698 1305.26 396.892 1304.54 395.997H1304.03L1302.78 399H1297.1V361.012H1304.54ZM1309.89 377.149C1308.59 377.149 1307.55 377.418 1306.79 377.955C1306.02 378.492 1305.46 379.298 1305.1 380.372C1304.76 381.446 1304.57 382.805 1304.54 384.449V385.255C1304.54 387.908 1304.93 389.942 1305.71 391.358C1306.5 392.758 1307.92 393.458 1309.99 393.458C1311.52 393.458 1312.73 392.75 1313.62 391.334C1314.54 389.918 1314.99 387.875 1314.99 385.206C1314.99 382.537 1314.54 380.527 1313.62 379.176C1312.71 377.825 1311.47 377.149 1309.89 377.149ZM1341.42 371.144C1345.08 371.144 1347.89 371.941 1349.84 373.536C1351.79 375.131 1352.77 377.556 1352.77 380.812V399H1347.57L1346.13 395.289H1345.93C1345.15 396.266 1344.36 397.063 1343.54 397.682C1342.73 398.3 1341.79 398.756 1340.73 399.049C1339.68 399.342 1338.39 399.488 1336.88 399.488C1335.27 399.488 1333.82 399.179 1332.53 398.561C1331.26 397.942 1330.26 396.998 1329.53 395.729C1328.8 394.443 1328.43 392.815 1328.43 390.846C1328.43 387.949 1329.45 385.816 1331.48 384.449C1333.52 383.066 1336.57 382.301 1340.64 382.154L1345.37 382.008V380.812C1345.37 379.379 1345 378.329 1344.25 377.662C1343.5 376.995 1342.46 376.661 1341.12 376.661C1339.81 376.661 1338.51 376.848 1337.24 377.223C1335.97 377.597 1334.7 378.069 1333.43 378.639L1330.97 373.609C1332.42 372.844 1334.04 372.242 1335.83 371.803C1337.63 371.363 1339.5 371.144 1341.42 371.144ZM1345.37 386.354L1342.49 386.451C1340.08 386.516 1338.41 386.948 1337.46 387.745C1336.54 388.543 1336.07 389.592 1336.07 390.895C1336.07 392.034 1336.4 392.848 1337.07 393.336C1337.74 393.808 1338.61 394.044 1339.68 394.044C1341.28 394.044 1342.62 393.572 1343.71 392.628C1344.82 391.684 1345.37 390.341 1345.37 388.6V386.354ZM1381 390.895C1381 392.75 1380.56 394.321 1379.69 395.606C1378.82 396.876 1377.53 397.844 1375.8 398.512C1374.08 399.163 1371.93 399.488 1369.36 399.488C1367.45 399.488 1365.82 399.366 1364.45 399.122C1363.1 398.878 1361.73 398.471 1360.35 397.901V391.749C1361.83 392.416 1363.42 392.97 1365.11 393.409C1366.82 393.832 1368.32 394.044 1369.6 394.044C1371.05 394.044 1372.08 393.832 1372.7 393.409C1373.34 392.97 1373.66 392.4 1373.66 391.7C1373.66 391.244 1373.53 390.838 1373.26 390.479C1373.02 390.105 1372.48 389.69 1371.65 389.234C1370.82 388.762 1369.52 388.152 1367.75 387.403C1366.04 386.687 1364.63 385.963 1363.52 385.23C1362.43 384.498 1361.62 383.635 1361.08 382.643C1360.56 381.633 1360.3 380.356 1360.3 378.81C1360.3 376.287 1361.28 374.391 1363.23 373.121C1365.2 371.835 1367.83 371.192 1371.12 371.192C1372.81 371.192 1374.42 371.363 1375.95 371.705C1377.5 372.047 1379.08 372.592 1380.71 373.341L1378.46 378.712C1377.11 378.126 1375.84 377.646 1374.63 377.271C1373.44 376.897 1372.23 376.71 1370.99 376.71C1369.9 376.71 1369.08 376.856 1368.53 377.149C1367.97 377.442 1367.7 377.89 1367.7 378.492C1367.7 378.932 1367.84 379.322 1368.11 379.664C1368.41 380.006 1368.96 380.388 1369.77 380.812C1370.6 381.218 1371.82 381.747 1373.41 382.398C1374.96 383.033 1376.3 383.701 1377.44 384.4C1378.58 385.084 1379.46 385.938 1380.08 386.964C1380.69 387.973 1381 389.283 1381 390.895ZM1395.76 371.705V399H1388.31V371.705H1395.76ZM1392.05 361.012C1393.16 361.012 1394.11 361.272 1394.91 361.793C1395.7 362.298 1396.1 363.25 1396.1 364.649C1396.1 366.033 1395.7 366.993 1394.91 367.53C1394.11 368.051 1393.16 368.312 1392.05 368.312C1390.93 368.312 1389.97 368.051 1389.17 367.53C1388.39 366.993 1388 366.033 1388 364.649C1388 363.25 1388.39 362.298 1389.17 361.793C1389.97 361.272 1390.93 361.012 1392.05 361.012ZM1424.14 390.895C1424.14 392.75 1423.7 394.321 1422.82 395.606C1421.96 396.876 1420.67 397.844 1418.94 398.512C1417.22 399.163 1415.07 399.488 1412.5 399.488C1410.59 399.488 1408.96 399.366 1407.59 399.122C1406.24 398.878 1404.87 398.471 1403.49 397.901V391.749C1404.97 392.416 1406.55 392.97 1408.25 393.409C1409.96 393.832 1411.45 394.044 1412.74 394.044C1414.19 394.044 1415.22 393.832 1415.84 393.409C1416.47 392.97 1416.79 392.4 1416.79 391.7C1416.79 391.244 1416.66 390.838 1416.4 390.479C1416.16 390.105 1415.62 389.69 1414.79 389.234C1413.96 388.762 1412.66 388.152 1410.88 387.403C1409.17 386.687 1407.77 385.963 1406.66 385.23C1405.57 384.498 1404.76 383.635 1404.22 382.643C1403.7 381.633 1403.44 380.356 1403.44 378.81C1403.44 376.287 1404.41 374.391 1406.37 373.121C1408.34 371.835 1410.97 371.192 1414.25 371.192C1415.95 371.192 1417.56 371.363 1419.09 371.705C1420.63 372.047 1422.22 372.592 1423.85 373.341L1421.6 378.712C1420.25 378.126 1418.97 377.646 1417.77 377.271C1416.58 376.897 1415.37 376.71 1414.13 376.71C1413.04 376.71 1412.22 376.856 1411.67 377.149C1411.11 377.442 1410.83 377.89 1410.83 378.492C1410.83 378.932 1410.97 379.322 1411.25 379.664C1411.54 380.006 1412.1 380.388 1412.91 380.812C1413.74 381.218 1414.95 381.747 1416.55 382.398C1418.09 383.033 1419.44 383.701 1420.58 384.4C1421.72 385.084 1422.59 385.938 1423.21 386.964C1423.83 387.973 1424.14 389.283 1424.14 390.895ZM1461.64 399L1453.04 370.997H1452.82C1452.86 371.664 1452.91 372.674 1452.97 374.024C1453.05 375.359 1453.13 376.783 1453.19 378.297C1453.26 379.811 1453.29 381.178 1453.29 382.398V399H1446.53V363.307H1456.83L1465.28 390.602H1465.42L1474.38 363.307H1484.68V399H1477.63V382.105C1477.63 380.982 1477.65 379.688 1477.68 378.224C1477.73 376.759 1477.78 375.367 1477.85 374.049C1477.91 372.714 1477.96 371.713 1478 371.046H1477.78L1468.57 399H1461.64ZM1505.79 371.144C1509.45 371.144 1512.26 371.941 1514.21 373.536C1516.17 375.131 1517.14 377.556 1517.14 380.812V399H1511.94L1510.5 395.289H1510.31C1509.52 396.266 1508.73 397.063 1507.91 397.682C1507.1 398.3 1506.16 398.756 1505.11 399.049C1504.05 399.342 1502.76 399.488 1501.25 399.488C1499.64 399.488 1498.19 399.179 1496.9 398.561C1495.63 397.942 1494.63 396.998 1493.9 395.729C1493.17 394.443 1492.8 392.815 1492.8 390.846C1492.8 387.949 1493.82 385.816 1495.85 384.449C1497.89 383.066 1500.94 382.301 1505.01 382.154L1509.74 382.008V380.812C1509.74 379.379 1509.37 378.329 1508.62 377.662C1507.87 376.995 1506.83 376.661 1505.5 376.661C1504.18 376.661 1502.88 376.848 1501.61 377.223C1500.34 377.597 1499.08 378.069 1497.81 378.639L1495.34 373.609C1496.79 372.844 1498.41 372.242 1500.2 371.803C1502 371.363 1503.87 371.144 1505.79 371.144ZM1509.74 386.354L1506.86 386.451C1504.45 386.516 1502.78 386.948 1501.83 387.745C1500.91 388.543 1500.44 389.592 1500.44 390.895C1500.44 392.034 1500.78 392.848 1501.44 393.336C1502.11 393.808 1502.98 394.044 1504.06 394.044C1505.65 394.044 1506.99 393.572 1508.08 392.628C1509.19 391.684 1509.74 390.341 1509.74 388.6V386.354ZM1537.42 399.488C1534.71 399.488 1532.41 399 1530.51 398.023C1528.6 397.031 1527.15 395.501 1526.16 393.434C1525.17 391.367 1524.67 388.722 1524.67 385.499C1524.67 382.162 1525.23 379.444 1526.36 377.345C1527.5 375.229 1529.07 373.674 1531.07 372.682C1533.09 371.689 1535.42 371.192 1538.08 371.192C1539.96 371.192 1541.59 371.38 1542.96 371.754C1544.34 372.112 1545.55 372.543 1546.57 373.048L1544.37 378.81C1543.2 378.338 1542.11 377.955 1541.1 377.662C1540.09 377.353 1539.08 377.198 1538.08 377.198C1536.77 377.198 1535.69 377.507 1534.83 378.126C1533.97 378.728 1533.32 379.64 1532.9 380.86C1532.48 382.081 1532.26 383.611 1532.26 385.45C1532.26 387.257 1532.49 388.754 1532.95 389.942C1533.4 391.131 1534.06 392.018 1534.93 392.604C1535.79 393.173 1536.84 393.458 1538.08 393.458C1539.62 393.458 1541 393.255 1542.2 392.848C1543.41 392.424 1544.58 391.839 1545.72 391.09V397.462C1544.58 398.178 1543.38 398.691 1542.13 399C1540.89 399.326 1539.32 399.488 1537.42 399.488ZM1561.01 361.012V368.751C1561.01 370.102 1560.96 371.388 1560.86 372.608C1560.78 373.829 1560.72 374.692 1560.67 375.196H1561.06C1561.65 374.252 1562.34 373.487 1563.13 372.901C1563.95 372.315 1564.84 371.884 1565.82 371.607C1566.8 371.331 1567.85 371.192 1568.97 371.192C1570.94 371.192 1572.66 371.542 1574.12 372.242C1575.59 372.926 1576.73 374.008 1577.54 375.489C1578.35 376.954 1578.76 378.858 1578.76 381.202V399H1571.31V383.058C1571.31 381.104 1570.96 379.632 1570.24 378.639C1569.52 377.646 1568.42 377.149 1566.92 377.149C1565.42 377.149 1564.24 377.499 1563.38 378.199C1562.52 378.883 1561.91 379.9 1561.55 381.251C1561.19 382.586 1561.01 384.221 1561.01 386.158V399H1553.56V361.012H1561.01ZM1595.37 371.705V399H1587.93V371.705H1595.37ZM1591.66 361.012C1592.77 361.012 1593.72 361.272 1594.52 361.793C1595.32 362.298 1595.71 363.25 1595.71 364.649C1595.71 366.033 1595.32 366.993 1594.52 367.53C1593.72 368.051 1592.77 368.312 1591.66 368.312C1590.54 368.312 1589.58 368.051 1588.78 367.53C1588 366.993 1587.61 366.033 1587.61 364.649C1587.61 363.25 1588 362.298 1588.78 361.793C1589.58 361.272 1590.54 361.012 1591.66 361.012ZM1620.21 371.192C1623.13 371.192 1625.47 371.99 1627.24 373.585C1629.02 375.164 1629.9 377.703 1629.9 381.202V399H1622.46V383.058C1622.46 381.104 1622.1 379.632 1621.38 378.639C1620.68 377.646 1619.58 377.149 1618.06 377.149C1615.78 377.149 1614.23 377.923 1613.4 379.469C1612.57 381.015 1612.16 383.245 1612.16 386.158V399H1604.71V371.705H1610.4L1611.4 375.196H1611.81C1612.4 374.252 1613.12 373.487 1613.99 372.901C1614.87 372.315 1615.83 371.884 1616.89 371.607C1617.97 371.331 1619.07 371.192 1620.21 371.192ZM1650.33 371.192C1652.85 371.192 1655.02 371.681 1656.84 372.657C1658.67 373.618 1660.07 375.017 1661.07 376.856C1662.06 378.696 1662.56 380.942 1662.56 383.595V387.208H1644.95C1645.04 389.308 1645.66 390.96 1646.83 392.164C1648.02 393.352 1649.67 393.946 1651.77 393.946C1653.51 393.946 1655.1 393.767 1656.55 393.409C1658 393.051 1659.49 392.514 1661.02 391.798V397.56C1659.67 398.227 1658.25 398.715 1656.77 399.024C1655.31 399.334 1653.52 399.488 1651.42 399.488C1648.69 399.488 1646.26 398.984 1644.15 397.975C1642.05 396.965 1640.4 395.427 1639.19 393.36C1638 391.293 1637.41 388.689 1637.41 385.548C1637.41 382.358 1637.95 379.705 1639.02 377.589C1640.11 375.457 1641.63 373.862 1643.56 372.804C1645.5 371.729 1647.75 371.192 1650.33 371.192ZM1650.37 376.49C1648.93 376.49 1647.72 376.954 1646.76 377.882C1645.82 378.81 1645.27 380.266 1645.12 382.252H1655.57C1655.56 381.145 1655.35 380.16 1654.96 379.298C1654.59 378.435 1654.02 377.752 1653.25 377.247C1652.51 376.743 1651.55 376.49 1650.37 376.49ZM1685.19 399V363.307H1692.75V392.75H1707.23V399H1685.19ZM1725.63 371.192C1728.15 371.192 1730.32 371.681 1732.14 372.657C1733.97 373.618 1735.38 375.017 1736.37 376.856C1737.36 378.696 1737.86 380.942 1737.86 383.595V387.208H1720.25C1720.34 389.308 1720.96 390.96 1722.13 392.164C1723.32 393.352 1724.97 393.946 1727.07 393.946C1728.81 393.946 1730.4 393.767 1731.85 393.409C1733.3 393.051 1734.79 392.514 1736.32 391.798V397.56C1734.97 398.227 1733.55 398.715 1732.07 399.024C1730.61 399.334 1728.82 399.488 1726.72 399.488C1723.99 399.488 1721.57 398.984 1719.45 397.975C1717.35 396.965 1715.7 395.427 1714.49 393.36C1713.31 391.293 1712.71 388.689 1712.71 385.548C1712.71 382.358 1713.25 379.705 1714.32 377.589C1715.41 375.457 1716.93 373.862 1718.86 372.804C1720.8 371.729 1723.05 371.192 1725.63 371.192ZM1725.67 376.49C1724.23 376.49 1723.02 376.954 1722.06 377.882C1721.12 378.81 1720.57 380.266 1720.43 382.252H1730.88C1730.86 381.145 1730.66 380.16 1730.26 379.298C1729.89 378.435 1729.32 377.752 1728.56 377.247C1727.81 376.743 1726.85 376.49 1725.67 376.49ZM1756.59 371.144C1760.26 371.144 1763.06 371.941 1765.02 373.536C1766.97 375.131 1767.95 377.556 1767.95 380.812V399H1762.75L1761.31 395.289H1761.11C1760.33 396.266 1759.53 397.063 1758.72 397.682C1757.9 398.3 1756.97 398.756 1755.91 399.049C1754.85 399.342 1753.57 399.488 1752.05 399.488C1750.44 399.488 1748.99 399.179 1747.71 398.561C1746.44 397.942 1745.44 396.998 1744.7 395.729C1743.97 394.443 1743.61 392.815 1743.61 390.846C1743.61 387.949 1744.62 385.816 1746.66 384.449C1748.69 383.066 1751.74 382.301 1755.81 382.154L1760.55 382.008V380.812C1760.55 379.379 1760.17 378.329 1759.43 377.662C1758.68 376.995 1757.64 376.661 1756.3 376.661C1754.98 376.661 1753.69 376.848 1752.42 377.223C1751.15 377.597 1749.88 378.069 1748.61 378.639L1746.14 373.609C1747.59 372.844 1749.21 372.242 1751 371.803C1752.81 371.363 1754.67 371.144 1756.59 371.144ZM1760.55 386.354L1757.67 386.451C1755.26 386.516 1753.58 386.948 1752.64 387.745C1751.71 388.543 1751.25 389.592 1751.25 390.895C1751.25 392.034 1751.58 392.848 1752.25 393.336C1752.92 393.808 1753.79 394.044 1754.86 394.044C1756.46 394.044 1757.8 393.572 1758.89 392.628C1760 391.684 1760.55 390.341 1760.55 388.6V386.354ZM1792.37 371.192C1792.75 371.192 1793.18 371.217 1793.67 371.266C1794.17 371.298 1794.58 371.347 1794.89 371.412L1794.32 378.395C1794.08 378.313 1793.73 378.256 1793.27 378.224C1792.83 378.175 1792.45 378.15 1792.13 378.15C1791.17 378.15 1790.23 378.272 1789.32 378.517C1788.42 378.761 1787.62 379.16 1786.9 379.713C1786.19 380.25 1785.62 380.966 1785.19 381.861C1784.79 382.74 1784.58 383.823 1784.58 385.108V399H1777.14V371.705H1782.78L1783.88 376.295H1784.24C1784.78 375.367 1785.45 374.521 1786.24 373.756C1787.06 372.975 1787.98 372.356 1789 371.9C1790.04 371.428 1791.17 371.192 1792.37 371.192ZM1816.84 371.192C1819.76 371.192 1822.1 371.99 1823.88 373.585C1825.65 375.164 1826.54 377.703 1826.54 381.202V399H1819.09V383.058C1819.09 381.104 1818.73 379.632 1818.02 378.639C1817.32 377.646 1816.21 377.149 1814.7 377.149C1812.42 377.149 1810.86 377.923 1810.03 379.469C1809.2 381.015 1808.79 383.245 1808.79 386.158V399H1801.34V371.705H1807.03L1808.03 375.196H1808.45C1809.03 374.252 1809.76 373.487 1810.62 372.901C1811.5 372.315 1812.47 371.884 1813.52 371.607C1814.6 371.331 1815.71 371.192 1816.84 371.192ZM1843.15 371.705V399H1835.7V371.705H1843.15ZM1839.44 361.012C1840.55 361.012 1841.5 361.272 1842.29 361.793C1843.09 362.298 1843.49 363.25 1843.49 364.649C1843.49 366.033 1843.09 366.993 1842.29 367.53C1841.5 368.051 1840.55 368.312 1839.44 368.312C1838.32 368.312 1837.36 368.051 1836.56 367.53C1835.78 366.993 1835.39 366.033 1835.39 364.649C1835.39 363.25 1835.78 362.298 1836.56 361.793C1837.36 361.272 1838.32 361.012 1839.44 361.012ZM1867.99 371.192C1870.9 371.192 1873.25 371.99 1875.02 373.585C1876.79 375.164 1877.68 377.703 1877.68 381.202V399H1870.24V383.058C1870.24 381.104 1869.88 379.632 1869.16 378.639C1868.46 377.646 1867.35 377.149 1865.84 377.149C1863.56 377.149 1862.01 377.923 1861.18 379.469C1860.35 381.015 1859.93 383.245 1859.93 386.158V399H1852.49V371.705H1858.17L1859.18 375.196H1859.59C1860.18 374.252 1860.9 373.487 1861.76 372.901C1862.64 372.315 1863.61 371.884 1864.67 371.607C1865.74 371.331 1866.85 371.192 1867.99 371.192ZM1894.83 411.012C1891.02 411.012 1888.11 410.344 1886.09 409.01C1884.09 407.691 1883.09 405.836 1883.09 403.443C1883.09 401.799 1883.6 400.424 1884.63 399.317C1885.65 398.211 1887.16 397.421 1889.14 396.949C1888.38 396.624 1887.71 396.095 1887.14 395.362C1886.57 394.614 1886.29 393.824 1886.29 392.994C1886.29 391.952 1886.59 391.09 1887.19 390.406C1887.79 389.706 1888.66 389.023 1889.8 388.355C1888.37 387.737 1887.23 386.744 1886.38 385.377C1885.55 384.01 1885.14 382.398 1885.14 380.543C1885.14 378.557 1885.57 376.873 1886.43 375.489C1887.31 374.09 1888.58 373.023 1890.24 372.291C1891.92 371.559 1893.95 371.192 1896.34 371.192C1896.85 371.192 1897.44 371.225 1898.1 371.29C1898.77 371.355 1899.38 371.428 1899.93 371.51C1900.5 371.591 1900.89 371.656 1901.08 371.705H1910.6V375.489L1906.33 376.588C1906.72 377.19 1907.01 377.833 1907.21 378.517C1907.4 379.2 1907.5 379.924 1907.5 380.689C1907.5 383.619 1906.48 385.906 1904.43 387.55C1902.39 389.177 1899.56 389.991 1895.93 389.991C1895.07 389.942 1894.25 389.877 1893.49 389.796C1893.11 390.089 1892.83 390.398 1892.63 390.724C1892.44 391.049 1892.34 391.391 1892.34 391.749C1892.34 392.107 1892.49 392.408 1892.78 392.652C1893.09 392.88 1893.55 393.059 1894.15 393.189C1894.77 393.303 1895.53 393.36 1896.44 393.36H1901.08C1904.08 393.36 1906.35 394.003 1907.92 395.289C1909.5 396.575 1910.29 398.463 1910.29 400.953C1910.29 404.143 1908.95 406.617 1906.28 408.375C1903.63 410.133 1899.81 411.012 1894.83 411.012ZM1895.15 406.153C1896.92 406.153 1898.44 405.982 1899.71 405.641C1901 405.315 1901.98 404.843 1902.67 404.225C1903.35 403.622 1903.69 402.898 1903.69 402.052C1903.69 401.368 1903.49 400.823 1903.08 400.416C1902.69 400.025 1902.09 399.749 1901.28 399.586C1900.48 399.423 1899.45 399.342 1898.2 399.342H1894.34C1893.43 399.342 1892.61 399.488 1891.88 399.781C1891.16 400.074 1890.59 400.481 1890.17 401.002C1889.74 401.539 1889.53 402.158 1889.53 402.857C1889.53 403.883 1890.02 404.688 1891 405.274C1891.99 405.86 1893.37 406.153 1895.15 406.153ZM1896.34 385.45C1897.74 385.45 1898.77 385.019 1899.42 384.156C1900.07 383.294 1900.4 382.122 1900.4 380.641C1900.4 378.997 1900.06 377.768 1899.37 376.954C1898.7 376.124 1897.7 375.709 1896.34 375.709C1894.98 375.709 1893.95 376.124 1893.27 376.954C1892.58 377.768 1892.24 378.997 1892.24 380.641C1892.24 382.122 1892.58 383.294 1893.24 384.156C1893.93 385.019 1894.96 385.45 1896.34 385.45Z" fill="#00B4B4"/>
</svg>
